<svg xmlns="http://www.w3.org/2000/svg" xmlns:xlink="http://www.w3.org/1999/xlink" version="1.1" width="256" height="256" viewBox="0 0 256 256" xml:space="preserve">
<g style="stroke: none; stroke-width: 0; stroke-dasharray: none; stroke-linecap: butt; stroke-linejoin: miter; stroke-miterlimit: 10; fill: none; fill-rule: nonzero; opacity: 1;" transform="translate(1.4065934065934016 1.4065934065934016) scale(2.81 2.81)">
	<circle cx="45" cy="45" r="45" style="stroke: none; stroke-width: 1; stroke-dasharray: none; stroke-linecap: butt; stroke-linejoin: miter; stroke-miterlimit: 10; fill: rgb(255,92,127); fill-rule: nonzero; opacity: 1;" transform="  matrix(1 0 0 1 0 0) "/>
	<path d="M 61.834 44.501 l 1.653 -9.768 c 1.717 -10.145 -4.683 -20.121 -14.749 -22.249 c -1.353 -0.286 -2.715 -0.426 -4.053 -0.401 c -0.746 0.014 -1.5 0.077 -2.256 0.187 c -10.59 1.539 -17.624 11.844 -15.88 22.403 l 1.622 9.817 c 0.226 1.367 1.222 2.486 2.551 2.878 c 10.906 3.217 17.655 3.217 28.563 -0.003 C 60.61 46.974 61.604 45.862 61.834 44.501 z" style="stroke: none; stroke-width: 1; stroke-dasharray: none; stroke-linecap: butt; stroke-linejoin: miter; stroke-miterlimit: 10; fill: rgb(52,56,67); fill-rule: nonzero; opacity: 1;" transform=" matrix(1 0 0 1 0 0) " stroke-linecap="round"/>
	<path d="M 63.056 56.694 l -6.46 -1.18 c -2.501 -0.457 -4.318 -2.636 -4.318 -5.178 l -0.013 -1.31 l -14.542 -0.063 v 1.373 c 0 2.542 -1.817 4.721 -4.317 5.178 l -6.461 1.181 c -3.403 0.622 -5.876 3.587 -5.876 7.047 v 0.873 v 18.488 c 0.682 0.429 1.379 0.835 2.085 1.228 c 0.099 0.055 0.196 0.111 0.295 0.165 c 0.698 0.382 1.408 0.745 2.128 1.09 c 0.081 0.039 0.163 0.077 0.244 0.115 C 31.639 88.452 38.136 90 45 90 s 13.361 -1.548 19.18 -4.299 c 0.081 -0.038 0.163 -0.077 0.244 -0.115 c 0.72 -0.346 1.43 -0.708 2.128 -1.09 c 0.099 -0.054 0.196 -0.11 0.295 -0.165 c 0.706 -0.393 1.403 -0.799 2.085 -1.228 V 64.614 v -0.873 C 68.931 60.281 66.459 57.316 63.056 56.694 z" style="stroke: none; stroke-width: 1; stroke-dasharray: none; stroke-linecap: butt; stroke-linejoin: miter; stroke-miterlimit: 10; fill: rgb(255,199,21); fill-rule: nonzero; opacity: 1;" transform=" matrix(1 0 0 1 0 0) " stroke-linecap="round"/>
	<path d="M 52.265 49.026 l 0.013 1.31 c 0 2.542 1.816 4.721 4.318 5.178 C 54.193 62.563 50.245 67.92 45 71.856 c -5.244 -3.936 -9.193 -9.293 -11.595 -16.343 c 2.5 -0.457 4.318 -2.636 4.318 -5.178 v -1.373 L 52.265 49.026 z" style="stroke: none; stroke-width: 1; stroke-dasharray: none; stroke-linecap: butt; stroke-linejoin: miter; stroke-miterlimit: 10; fill: rgb(255,199,171); fill-rule: nonzero; opacity: 1;" transform=" matrix(1 0 0 1 0 0) " stroke-linecap="round"/>
	<path d="M 57.355 28.567 v 8.525 c 0 7.23 -5.531 15.114 -12.356 15.114 l 0 0 c -6.823 0 -12.356 -7.883 -12.356 -15.114 v -8.525 c 7.615 1.008 13.311 -0.153 16.21 -5.051 C 50.324 26.938 53.625 28.543 57.355 28.567 z" style="stroke: none; stroke-width: 1; stroke-dasharray: none; stroke-linecap: butt; stroke-linejoin: miter; stroke-miterlimit: 10; fill: rgb(255,199,171); fill-rule: nonzero; opacity: 1;" transform=" matrix(1 0 0 1 0 0) " stroke-linecap="round"/>
	<path d="M 45 55.362 c 2.836 0 5.441 -1.373 7.527 -3.484 c -0.151 -0.491 -0.248 -1.005 -0.248 -1.542 l -0.013 -1.31 l -0.048 0 c -2.032 1.936 -4.519 3.179 -7.217 3.179 c -2.724 0 -5.234 -1.269 -7.276 -3.238 v 1.369 c 0 0.537 -0.097 1.052 -0.249 1.543 C 39.56 53.989 42.164 55.362 45 55.362 z" style="stroke: none; stroke-width: 1; stroke-dasharray: none; stroke-linecap: butt; stroke-linejoin: miter; stroke-miterlimit: 10; fill: rgb(244,181,149); fill-rule: nonzero; opacity: 1;" transform=" matrix(1 0 0 1 0 0) " stroke-linecap="round"/>
	<path d="M 33.405 55.513 c -2.306 1.048 -6.121 3.825 -4.261 8.171 c 4.68 -3.986 12.531 6.584 15.856 8.171 C 40.003 67.34 35.966 62.034 33.405 55.513 z" style="stroke: none; stroke-width: 1; stroke-dasharray: none; stroke-linecap: butt; stroke-linejoin: miter; stroke-miterlimit: 10; fill: rgb(255,255,255); fill-rule: nonzero; opacity: 1;" transform=" matrix(1 0 0 1 0 0) " stroke-linecap="round"/>
	<path d="M 56.596 55.513 c 2.306 1.048 6.121 3.825 4.261 8.171 c -4.68 -3.986 -12.531 6.584 -15.856 8.171 C 49.998 67.34 54.035 62.034 56.596 55.513 z" style="stroke: none; stroke-width: 1; stroke-dasharray: none; stroke-linecap: butt; stroke-linejoin: miter; stroke-miterlimit: 10; fill: rgb(255,255,255); fill-rule: nonzero; opacity: 1;" transform=" matrix(1 0 0 1 0 0) " stroke-linecap="round"/>
</g>
</svg>